<svg width="550" height="200" xmlns:xlink="http://www.w3.org/1999/xlink"> <!-- Generator: ChartGen (2.0) - http://chartgen.frederickallen.co --><desc>Created with ChartGen.</desc><path id="chart" stroke="#5a637e" stroke-width="1.5" fill="none" stroke-linecap="round" stroke-linejoin="round" d="M 0 196.37199742776977 4.583 190.94136597005544 9.167 200 13.75 185.43298864620877 18.333 176.22341184425187 22.917 164.24310470672648 27.5 135.05697572716164 32.083 125.12659549611583 36.667 111.68317732467379 41.25 123.95875333676574 45.833 118.42639058613354 50.417 115.7962644765491 55 110.43138617157437 59.583 92.52047549040894 64.167 81.04510294090281 68.75 98.35182899217787 73.333 108.66018646601616 77.917 109.31482320052437 82.5 105.10083183941343 87.083 103.4632061485401 91.667 108.1486352085388 96.25 101.55140221699781 100.833 82.80720472595617 105.417 76.5788510567028 110 61.11279974029573 114.583 70.50226724314399 119.167 81.70470217750457 123.75 79.40706370818835 128.333 65.74860377935889 132.917 67.62194831967612 137.5 74.59550438664509 142.083 60.2344368697364 146.667 52.298982480299905 151.25 43.41817144204109 155.833 51.87882396971221 160.417 62.26492730968288 165 58.50376426460889 169.583 56.556395734729456 174.167 62.42951696245248 178.75 75.6215016944877 183.333 76.03545707745847 187.917 55.28020561300341 192.5 57.73209518906099 197.083 46.90143436987598 201.667 55.09824720290638 206.25 21.444212171777018 210.833 16.621073678682126 215.417 10.450202325345789 220 0 224.583 10.077601126487986 229.167 29.119548743142964 233.75 30.664541061603263 238.333 24.153738314858366 242.917 25.479966999361093 247.5 29.27173214067867 252.083 36.40408827464142 256.667 18.876944422044282 261.25 6.11049424453143 265.833 14.006662159060602 270.417 25.17725437165419 275 17.864180453117807 279.583 16.616938260270835 284.167 31.980431200077756 288.75 13.039801334499538 293.333 24.659499986559887 297.917 37.234480291629716 302.5 43.710959065560864 307.083 54.24883226122611 311.667 55.42122338082862 316.25 58.761814373473776 320.833 55.66397244157171 325.417 64.61177725809353 330 63.89676341478041 334.583 65.12953164318783 339.167 47.71611179690133 343.75 63.44021322217329 348.333 76.18309151474175 352.917 84.47832730596102 357.5 88.29738620879314 362.083 75.84398720501544 366.667 88.88461562319722 371.25 82.0847471295027 375.833 72.81437967689976 380.417 59.94619820646905 385 71.69450837112072 389.583 72.02161996745427 394.167 74.92675140138992 398.75 85.94846855117683 403.333 74.05293749108301 407.917 74.13481877562667 412.5 80.38839849718894 417.083 76.08508209839401 421.667 69.6718752261557 426.25 53.70626536566404 430.833 53.97424047871604 435.417 59.070730128797614 440 58.52361427298312 444.583 47.03376775903745 449.167 44.31679786281578 453.75 54.4857917361934 458.333 67.0996449743294 462.917 73.59390604742912 467.5 73.62037272526142 472.083 64.95543052807227 476.667 89.41436272168427 481.25 78.9013020364868 485.833 64.70523771418884 490.417 70.80001736875732 495 67.57190975689944 499.583 79.57082627727567 504.167 72.92314118111686 508.75 60.95689446618986 513.333 58.28210583776341 517.917 53.60536115642841 522.5 54.801324160975305 527.083 35.639449410392736 531.667 40.35754827584069 536.25 36.2014527724879 540.833 40.32239721934466 545.417 55.35216189335998 550 37.88291389852097"></path></svg>